<svg width="159" height="149" viewBox="0 0 159 149" fill="none" xmlns="http://www.w3.org/2000/svg">
<path d="M125.058 27.1608L122.254 24.8L117.348 23.2991M125.058 27.1608L158 54.9L154.079 63.3M125.058 27.1608L1 93.4M1 93.4L11.5134 98.4556M1 93.4L5.6089 83.6M11.5134 98.4556L122.254 38.8L154.079 63.3M11.5134 98.4556L22.0268 103.511M154.079 63.3L145.911 80.8M148.888 70.3L122.254 50L22.0268 103.511M22.0268 103.511L33.2411 108.904M33.2411 108.904L122.254 61.2L145.911 80.8M33.2411 108.904L42.3527 113.285M145.911 80.8L142.317 88.5M142.317 88.5L122.254 73.1L42.3527 113.285M142.317 88.5L138.723 96.2M42.3527 113.285L54.2679 119.015M54.2679 119.015L122.254 83.6L138.723 96.2M54.2679 119.015L64.0804 123.733M138.723 96.2L135.31 103.511M64.0804 123.733L122.254 93.4L135.31 103.511M64.0804 123.733L74.5938 128.789M135.31 103.511L131.535 111.6M74.5938 128.789L122.254 103.511L131.535 111.6M74.5938 128.789L85.808 134.181M131.535 111.6L128.074 119.015M85.808 134.181L122.254 113.285L128.074 119.015M85.808 134.181L97.0223 139.574M128.074 119.015L124.02 127.7M97.0223 139.574L122.254 123.733L124.02 127.7M97.0223 139.574L105.783 143.787M124.02 127.7L120.152 135.4M105.783 143.787L114.545 148L120.152 135.4M105.783 143.787L120.152 135.4M5.6089 83.6L117.348 23.2991M5.6089 83.6L9.8886 74.5M117.348 23.2991L108.938 20.7261M9.8886 74.5L108.938 20.7261M9.8886 74.5L13.5099 66.8M108.938 20.7261L100.527 18.1532M13.5099 66.8L100.527 18.1532M13.5099 66.8L17.4604 58.4M100.527 18.1532L92.1161 15.5802M17.4604 58.4L92.1161 15.5802M17.4604 58.4L22.0268 48.6903M92.1161 15.5802L83.7054 13.0072M22.0268 48.6903L83.7054 13.0072M22.0268 48.6903L26.6782 38.8M83.7054 13.0072L74.5938 10.2198M26.6782 38.8L74.5938 10.2198M26.6782 38.8L32.152 27.1608M74.5938 10.2198L66.183 7.64685M32.152 27.1608L66.183 7.64685M32.152 27.1608L36.3883 18.1532M66.183 7.64685L56.3705 4.64504M36.3883 18.1532L56.3705 4.64504M36.3883 18.1532L40.4218 9.57658M56.3705 4.64504L49.3616 2.5009M40.4218 9.57658L44.4554 1L49.3616 2.5009M40.4218 9.57658L49.3616 2.5009" stroke="#436737"/>
</svg>
