<svg width="111" height="100" viewBox="0 0 111 100" fill="none" xmlns="http://www.w3.org/2000/svg">
<path d="M86.2588 78.8459C86.6979 78.9657 87.2 79.2936 87.7393 79.8528C88.3079 80.4425 88.8811 81.2481 89.4258 82.2092C90.5148 84.1308 91.4594 86.6165 92.0293 89.0842C92.6014 91.5614 92.7824 93.9632 92.3945 95.7346C92.2013 96.6166 91.8753 97.3069 91.4219 97.7786C91.1143 98.0985 90.7325 98.3296 90.2588 98.4534C90.2025 98.4619 90.1463 98.4724 90.0898 98.4807L89.5322 98.5579C88.068 98.7496 86.5487 98.8528 84.9814 98.8752C85.5627 98.4548 86.0654 97.9138 86.4834 97.2766C87.6447 95.5065 88.1727 93.0264 88.1426 90.4583C88.1123 87.8825 87.5201 85.1593 86.3799 82.8713C85.629 81.3647 84.6284 80.0292 83.3779 79.0559C84.4217 79.0903 85.3862 79.024 86.2588 78.8459ZM76.8926 77.8811C78.3191 78.304 79.6705 78.6185 80.9326 78.8167C82.8894 79.5354 84.4246 81.1884 85.4854 83.3167C86.5509 85.4546 87.1139 88.0272 87.1426 90.47C87.1714 92.9203 86.6624 95.1818 85.6475 96.7288C84.8276 97.9783 83.6802 98.7644 82.1621 98.8303L81.1035 98.7698C79.9379 98.6897 78.7513 98.5657 77.5459 98.4016C78.5795 97.9744 79.3619 97.2689 79.9238 96.3733C81.0691 94.5481 81.2942 91.9584 81.0137 89.3137C80.7312 86.651 79.9264 83.8416 78.9121 81.5012C78.4045 80.3301 77.8409 79.2671 77.2568 78.3938C77.1376 78.2156 77.0148 78.045 76.8926 77.8811ZM89.8135 76.9651C90.2582 77.0175 90.7862 77.2271 91.3818 77.6086C92.07 78.0495 92.8076 78.6927 93.5527 79.4895C95.0429 81.0831 96.5206 83.2452 97.6504 85.4856C98.7836 87.7328 99.544 90.0129 99.6445 91.8459C99.6947 92.7603 99.5785 93.5289 99.2949 94.1213C99.0179 94.6998 98.5704 95.1345 97.8945 95.386L98.0693 95.8538L98.168 96.1204C96.4213 96.943 94.5252 97.5795 92.5 98.0334C92.9171 97.4483 93.199 96.7351 93.3711 95.9495C93.8048 93.9694 93.5905 91.3998 93.0039 88.8596C92.4151 86.31 91.4382 83.7316 90.2959 81.7161C89.7249 80.7086 89.104 79.8273 88.459 79.1584C88.1963 78.8861 87.9219 78.6436 87.6396 78.4397C88.4954 78.0984 89.2294 77.6121 89.8135 76.9651ZM66.8311 73.7229C69.6792 75.1794 72.3938 76.364 74.9092 77.2415C75.3756 77.5783 75.895 78.1573 76.4248 78.9495C76.9684 79.7622 77.5058 80.7697 77.9951 81.8987C78.9745 84.1585 79.7491 86.8698 80.0195 89.4192C80.2919 91.9869 80.0427 94.3017 79.0762 95.842C78.6005 96.6 77.9493 97.1742 77.082 97.512C76.2107 97.8513 75.0886 97.9646 73.6562 97.7415C70.3282 97.0656 66.8878 96.0915 63.3838 94.8293C65.8455 95.0596 67.7434 94.7859 69.1582 94.0911C71.5412 92.9207 72.4189 90.6422 72.3906 88.0354C72.3625 85.4433 71.447 82.4373 70.1543 79.594C69.2017 77.4987 68.0325 75.4679 66.8311 73.7229ZM92.0049 71.6858C92.4905 71.6796 93.2134 71.9351 94.126 72.4905C95.924 73.5849 98.177 75.6682 100.207 78.1428C102.236 80.6162 104.003 83.4334 104.864 85.9729C105.674 88.3608 105.637 90.3421 104.502 91.636L104.217 91.928C102.881 93.2572 101.363 94.3914 99.6865 95.3362C99.8892 95.1012 100.06 94.8395 100.197 94.553C100.577 93.759 100.698 92.8073 100.643 91.7913C100.531 89.7632 99.7058 87.3413 98.543 85.0354C97.3766 82.7225 95.8472 80.4795 94.2832 78.8069C93.5014 77.9708 92.7005 77.2652 91.9209 76.7659C91.4374 76.4562 90.9458 76.2146 90.46 76.0774C91.0714 75.0201 91.3203 73.7479 91.2646 72.3284C91.3303 72.0651 91.4299 71.9185 91.5283 71.8352C91.6302 71.749 91.7777 71.6887 92.0049 71.6858ZM13.6367 41.5999C16.2233 41.2471 20.23 42.2443 25.6426 45.1995C31.0346 48.1434 37.7521 52.9918 45.7334 60.2249L46.0693 59.8547L46.1133 59.8049L47.0107 60.5461C53.054 65.4747 59.1549 69.5771 64.8066 72.6575C66.3699 74.6373 67.9973 77.2657 69.2441 80.0081C70.5107 82.7938 71.3647 85.653 71.3906 88.0461C71.4164 90.4244 70.6327 92.2517 68.7168 93.1926C66.743 94.1619 63.4368 94.265 58.2334 92.7854C50.2101 89.3053 41.9936 84.374 34.1553 78.0891L33.3975 77.4758C31.2335 75.711 29.166 73.8956 27.1982 72.0422C29.3373 73.782 31.6505 75.5186 34.1074 77.2073C41.542 82.317 48.9023 86.0609 54.8027 87.9758C57.7498 88.9322 60.3612 89.4418 62.4482 89.4221C64.5181 89.4026 66.1972 88.8571 67.0908 87.5569C67.9845 86.2566 67.8916 84.4935 67.168 82.554C66.4384 80.5985 65.0271 78.3434 63.0781 75.9348C59.1759 71.1125 53.043 65.5826 45.6084 60.4729C38.1738 55.3632 30.8135 51.6192 24.9131 49.7043C21.9663 48.748 19.3556 48.2385 17.2686 48.2581C15.1985 48.2775 13.5187 48.823 12.625 50.1233C12.1585 50.8021 11.9617 51.6069 11.9824 52.4973C11.7972 52.1385 11.6235 51.7871 11.4648 51.4417L11.542 51.3879C11.4478 51.2545 11.3571 51.12 11.2656 50.9875C10.4516 49.1083 10.0379 47.4457 10.0068 46.0618C9.97744 44.7538 10.2864 43.731 10.873 42.9993C11.4563 42.2719 12.3604 41.7739 13.6367 41.5999ZM90.7988 66.1897C91.2962 65.9548 92.0735 65.8847 93.1016 66.0227C95.1411 66.2965 97.8906 67.3497 100.601 68.9114C103.306 70.4705 105.922 72.5067 107.713 74.7043C109.379 76.7499 110.27 78.8578 109.98 80.8225L109.885 81.3069C109.248 84.2703 108.097 86.9743 106.405 89.3469C106.477 88.1887 106.243 86.9249 105.812 85.6526C104.898 82.9576 103.052 80.0342 100.98 77.509C98.9099 74.985 96.574 72.8108 94.6455 71.637C93.6951 71.0585 92.7701 70.6769 91.9922 70.6868C91.6826 70.6908 91.3819 70.7564 91.1162 70.9075C90.9325 69.7821 90.5896 68.5745 90.1016 67.302C90.1122 67.011 90.1792 66.793 90.2812 66.6282C90.3917 66.4499 90.5595 66.3028 90.7988 66.1897ZM17.2773 49.2581C19.2129 49.2398 21.7084 49.7156 24.6045 50.6555C30.3902 52.5332 37.6638 56.2262 45.042 61.2971C52.4201 66.368 58.4744 71.8352 62.3008 76.5637C64.2161 78.9306 65.5548 81.09 66.2314 82.9036C66.9139 84.7328 66.8835 86.0941 66.2676 86.9905C65.6515 87.8869 64.3911 88.4037 62.4385 88.4221C60.5029 88.4403 58.0074 87.9645 55.1113 87.0247C51.318 85.7936 46.8868 83.7789 42.2041 81.1106C43.8331 81.816 45.3889 82.3689 46.8271 82.7522C48.7824 83.2733 50.5471 83.4923 51.9922 83.3518C53.4342 83.2115 54.6315 82.7024 55.3242 81.6946C56.0165 80.6868 56.0624 79.3876 55.6768 77.9915C55.2901 76.5919 54.4529 75.0228 53.2656 73.384C50.8883 70.1027 47.0387 66.4496 42.2871 63.1838C37.5353 59.918 32.7446 57.6327 28.8291 56.5891C26.8738 56.068 25.1092 55.8489 23.6641 55.9895C22.2223 56.1297 21.0257 56.6381 20.333 57.6458C19.6403 58.6536 19.5947 59.9534 19.9805 61.3499C20.3671 62.7494 21.2034 64.3186 22.3906 65.9573C22.8717 66.6213 23.4148 67.2994 24.0117 67.9875C21.4018 65.6139 19.1725 63.2874 17.415 61.1155C16.1234 59.5192 15.0944 58.0175 14.3535 56.6526L14.4775 56.5657C14.2594 56.2566 14.0513 55.9495 13.8496 55.6467C13.7127 55.3485 13.5906 55.0586 13.4854 54.7766C12.8028 52.9471 12.8332 51.5861 13.4492 50.6897C14.0653 49.7933 15.3248 49.2765 17.2773 49.2581ZM23.7607 56.9846C25.0435 56.8598 26.6806 57.0517 28.5723 57.5559C32.351 58.5631 37.0376 60.7885 41.7207 64.0071C46.4039 67.2258 50.1616 70.8041 52.4561 73.9709C53.6044 75.5561 54.3697 77.0159 54.7129 78.2581C55.0567 79.503 54.96 80.4585 54.5 81.1282C54.0397 81.7979 53.1815 82.2316 51.8955 82.3567C50.6128 82.4814 48.9755 82.2896 47.084 81.7854C43.3054 80.7782 38.6195 78.5518 33.9365 75.3333C29.2533 72.1146 25.4956 68.5372 23.2012 65.3704C22.0526 63.7851 21.2875 62.3255 20.9443 61.0833C20.6003 59.8379 20.6969 58.8819 21.1572 58.2122C21.6176 57.5427 22.4751 57.1097 23.7607 56.9846ZM28.0869 20.4202C29.4528 20.3708 31.0265 20.5353 32.7754 20.9094L33.5361 21.0833C35.2343 21.4928 37.0771 22.0852 39.0342 22.8518L39.8799 23.1917C47.0221 26.1218 55.5353 31.2515 64.001 38.0452L64.8203 38.7083C74.4519 46.5633 82.0075 54.9584 86.3096 62.0051C86.3885 62.3297 86.4825 62.6638 86.5928 63.0071L86.8555 62.9221C87.1765 63.4758 87.4777 64.0195 87.7559 64.554L88.1211 65.2747C88.4121 65.8662 88.6746 66.4435 88.9082 67.0051L89.1318 67.5618C89.7323 69.1073 90.0987 70.5177 90.2246 71.7668L90.2637 72.2922C90.3351 73.8001 90.0272 75.0243 89.3506 75.9534L89.21 76.135C88.5638 76.9272 87.6309 77.48 86.416 77.7864L86.1699 77.845C84.9704 78.1068 83.5263 78.138 81.8691 77.9387L81.1455 77.8391C79.6089 77.6019 77.9168 77.1822 76.0977 76.5881L75.3105 76.3225C72.6539 75.4006 69.7533 74.1271 66.6953 72.5325L65.375 71.8293C60.1088 68.9669 54.434 65.1976 48.7744 60.6838L47.6426 59.7708C44.9971 57.6133 42.5084 55.4123 40.1982 53.2102L40.4053 52.9836C39.0933 51.7946 37.8178 50.6727 36.582 49.6125C33.3055 46.2004 30.5021 42.8355 28.2617 39.6672L28.4287 39.5071C28.1242 39.1917 27.8185 38.8873 27.5156 38.5901C27.2597 38.2115 27.0114 37.8362 26.7725 37.4641C24.0584 33.2366 22.4879 29.4953 22.2275 26.6008L22.207 26.3235C22.11 24.7559 22.4153 23.4877 23.1094 22.5315L23.2529 22.344C24.1613 21.2301 25.6441 20.5848 27.6738 20.4417L28.0869 20.4202ZM91.7764 61.6956C93.5016 60.9675 95.8708 60.6976 98.3535 60.9065C100.831 61.115 103.373 61.7966 105.435 62.9241C107.494 64.0501 109.025 65.5926 109.6 67.5061C110.325 70.9095 110.609 74.1721 110.43 77.2258C109.98 76.1381 109.305 75.0776 108.487 74.0735C106.598 71.7549 103.876 69.6453 101.1 68.0452C98.3275 66.4477 95.4505 65.3289 93.2344 65.0315C92.1348 64.8839 91.127 64.9282 90.3711 65.2854C90.0416 65.4411 89.7564 65.6587 89.5391 65.9456C89.3927 65.6174 89.237 65.2855 89.0732 64.9495C89.118 63.4984 90.0956 62.405 91.7764 61.6956ZM88.502 55.9709C89.9545 54.6887 92.3667 54.2008 95.0928 54.4153C97.8001 54.6283 100.712 55.5275 103.061 56.8879C105.424 58.2573 107.129 60.0397 107.583 61.969L108.034 61.8616C108.3 62.6462 108.545 63.426 108.769 64.2004C107.973 63.3563 106.996 62.6384 105.915 62.0471C103.71 60.8411 101.028 60.1284 98.4375 59.9104C95.8523 59.6929 93.3083 59.9641 91.3877 60.7747C89.9758 61.3706 88.8504 62.2868 88.3506 63.5452C88.0103 62.9158 87.6426 62.2738 87.2471 61.6213C86.6104 58.8598 87.255 57.0719 88.502 55.9709ZM88.127 49.7747C89.3721 49.6703 90.8159 49.7888 92.3467 50.095C95.4097 50.7077 98.7583 52.0583 101.457 53.7756C103.221 54.8983 104.657 56.1481 105.574 57.4104C104.96 56.9055 104.282 56.4399 103.562 56.0227C101.082 54.5866 98.0257 53.6428 95.1709 53.4182C92.3347 53.1951 89.5905 53.6755 87.8398 55.2209C86.6542 56.2677 85.9858 57.744 85.999 59.6624C85.5889 59.0469 85.1584 58.4224 84.7051 57.7922L85.0254 57.6487C84.1687 55.7517 83.8653 54.2752 83.9434 53.1545C84.02 52.0542 84.4629 51.2828 85.1553 50.7502C85.8647 50.2045 86.8773 49.8794 88.127 49.7747ZM85.5469 42.9788C88.2916 43.1007 91.4851 43.8654 94.4268 45.0667C97.3731 46.2698 100.021 47.8923 101.704 49.6956L102.069 49.3538L102.169 49.26C103.486 51.4981 104.655 53.7319 105.67 55.9446C104.686 54.8537 103.41 53.834 101.994 52.9329C99.1931 51.1504 95.7287 49.7509 92.542 49.1135C90.9481 48.7948 89.407 48.6632 88.043 48.7776C86.6834 48.8916 85.4614 49.254 84.5459 49.9583C83.6133 50.6757 83.0406 51.7168 82.9453 53.0852C82.8875 53.9161 83.0063 54.861 83.3145 55.927C82.1656 54.4334 80.9059 52.9087 79.5439 51.3665L79.5693 51.3538L80.0127 51.1243C78.2931 47.8079 78.4983 45.7892 79.5234 44.6213C80.5988 43.3965 82.7656 42.8552 85.5469 42.9788ZM9.48633 50.1145C9.77138 50.5628 10.0718 51.0159 10.3867 51.4739C10.4691 51.662 10.5548 51.8519 10.6445 52.0432C10.2462 51.4002 9.86031 50.757 9.48633 50.1145ZM9.21289 35.7522C10.2873 35.507 11.7255 35.5793 13.5557 36.0793C15.3814 36.5782 17.5672 37.4949 20.1191 38.9045C24.3789 41.2575 29.6277 44.9674 35.8887 50.3352C36.3996 50.8669 36.9232 51.3979 37.4561 51.9309C33.2132 48.6327 29.4308 46.1286 26.1211 44.3215C20.6589 41.3394 16.4153 40.2114 13.502 40.6086C12.0285 40.8096 10.8698 41.4056 10.0938 42.3733C9.32117 43.3368 8.97373 44.6112 9.00684 46.0842C9.01784 46.5739 9.0713 47.0892 9.16602 47.6282C7.67638 44.9436 6.82095 42.5559 6.58887 40.6292C6.42137 39.2381 6.58321 38.1309 7.01758 37.3274C7.44264 36.5412 8.15572 35.9935 9.21289 35.7522ZM40.6514 2.51392C41.3546 2.68463 42.0626 2.86743 42.7744 3.06372C44.5635 3.55706 46.3771 4.1308 48.208 4.78345L48.0693 4.85376L47.6221 5.07739C49.6502 9.13357 55.4369 17.8056 64.1016 25.968C72.767 34.1311 84.357 41.8283 97.9961 43.8489L98.0693 43.3538L98.1182 43.0208C99.3118 44.7002 100.425 46.3859 101.455 48.0706C99.6869 46.5212 97.3272 45.171 94.8047 44.1409C91.778 42.9049 88.4717 42.1078 85.5918 41.9797C82.7484 41.8534 80.1649 42.3747 78.7715 43.9622C77.5331 45.3732 77.3726 47.4451 78.4756 50.1741C75.0316 46.3977 70.9953 42.5388 66.4971 38.7942L65.4521 37.9329C59.9125 33.415 54.3227 29.5897 49.0732 26.6096C49.4139 26.6253 49.7367 26.6018 50.041 26.5354C51.0948 26.3055 51.837 25.6043 52.2881 24.636C52.732 23.6829 52.903 22.4601 52.8525 21.1077C52.8018 19.7492 52.5264 18.226 52.0479 16.6467C50.4468 11.3632 46.4913 5.24244 40.6514 2.51392ZM10.1309 31.4124C14.2162 30.9017 20.1829 32.8218 26.7471 39.2356C28.0904 41.2154 29.6557 43.2742 31.4219 45.3752C27.3121 42.16 23.7089 39.7454 20.6025 38.0295C18.0045 36.5945 15.7438 35.6404 13.8193 35.1145C11.8994 34.5899 10.2827 34.4826 8.99023 34.7776C7.6807 35.0765 6.71389 35.7881 6.13867 36.8518C5.57279 37.8986 5.41339 39.2342 5.5957 40.7483C5.75937 42.1076 6.20374 43.6461 6.91602 45.3176C5.84739 43.1332 4.92662 40.9656 4.15918 38.8303L4.55469 38.7327C4.0882 36.8666 4.44173 35.1804 5.40625 33.8967C6.37396 32.6088 7.99164 31.6798 10.1309 31.4124ZM48.6875 4.95825C58.123 8.38715 68.0022 13.9042 77.3574 21.3489L78.4521 22.2307C86.2873 28.6206 92.8667 35.6705 97.9854 42.8352C84.6923 40.8201 73.338 33.2956 64.7871 25.2405C56.4335 17.3712 50.8021 9.03542 48.6875 4.95825ZM8.47266 27.6125C11.9568 27.3062 16.9569 29.0646 22.6641 34.511C17.8197 31.1095 13.4107 29.9947 10.0068 30.4202C7.6463 30.7153 5.76366 31.756 4.60645 33.2961C3.90882 34.2247 3.48894 35.3187 3.37988 36.5071C3.20733 35.951 3.04633 35.3974 2.89551 34.8469L3.27344 34.7522C2.80435 32.8754 3.12148 31.185 4.02051 29.927C4.91914 28.6697 6.43706 27.7916 8.47266 27.6125ZM8.40332 23.9163C12.3327 23.7504 17.7122 26.1271 22.6426 33.1233C17.0976 28.0706 12.1038 26.2894 8.38477 26.6165C6.10033 26.8174 4.29762 27.8185 3.20605 29.3459C2.92966 29.7328 2.70177 30.1502 2.52344 30.592C2.11715 28.8004 2.55329 27.2089 3.56543 26.0315C4.60992 24.8164 6.30025 24.0051 8.40332 23.9163ZM2.46191 30.7551C2.335 31.0972 2.23719 31.453 2.16992 31.8206C2.10524 31.5038 2.04329 31.1885 1.98633 30.8743L2.06934 30.8538L2.46191 30.7551ZM6.51367 19.4153C8.51803 18.802 10.727 18.9937 12.8379 19.676C14.9473 20.3579 16.9252 21.5193 18.4424 22.7971C19.9627 24.0777 20.9494 25.4156 21.2129 26.4426C21.3051 27.8128 21.6715 29.3354 22.2842 30.9758C17.538 24.9838 12.4017 22.7464 8.36035 22.9172C6.02612 23.016 4.05992 23.9233 2.80762 25.3801C2.20347 26.0829 1.77498 26.9051 1.55078 27.8079C1.4175 26.5046 1.35628 25.2277 1.36816 23.9817C2.73172 21.4053 4.55008 20.0162 6.51367 19.4153ZM15.0078 3.01001C21.0468 0.584861 28.6712 0.19867 37.0889 1.75317L37.0693 1.85376L36.9717 2.34399C44.215 3.79286 49.2424 10.837 51.0908 16.9368C51.5496 18.4509 51.8056 19.8882 51.8525 21.1448C51.8997 22.4075 51.7347 23.4553 51.3818 24.2131C51.0361 24.9555 50.5202 25.4068 49.8281 25.5579C49.1107 25.7143 48.1153 25.5676 46.793 24.9065L46.6143 25.2629C44.7583 24.2832 42.9551 23.4172 41.2227 22.6721C42.2401 22.0391 42.9005 21.2966 43.1836 20.4377C43.549 19.3289 43.2414 18.172 42.5518 17.0637C41.1867 14.8699 38.148 12.5719 34.5547 10.4973C30.9379 8.40917 26.6764 6.50101 22.7734 5.11353C19.8785 4.0844 17.1466 3.3296 15.0078 3.01001ZM3.47852 13.7756C8.85225 12.3406 15.3972 11.9084 20.3584 12.8411C22.879 13.3149 24.9295 14.1295 26.2207 15.2864C27.3978 16.341 27.9638 17.6936 27.6572 19.4407C25.8406 19.5614 24.3009 20.0598 23.1699 21.011C22.0823 16.8744 17.8415 14.6648 13.5977 14.012C11.2958 13.6579 8.9261 13.7455 6.92285 14.2493C4.93613 14.7489 3.22411 15.6813 2.36133 17.093L3.21484 17.6145C3.87978 16.5266 5.29117 15.6908 7.16699 15.219C9.02663 14.7513 11.2601 14.6641 13.4453 15.0002C17.788 15.6683 21.6805 17.9442 22.3369 21.8948C21.8006 22.6152 21.4627 23.4564 21.3018 24.3928C20.7435 23.5912 19.978 22.7831 19.0869 22.0325C17.479 20.6781 15.3883 19.4489 13.1455 18.7239C10.9041 17.9993 8.47695 17.7688 6.2207 18.4592C4.43751 19.005 2.79647 20.1177 1.45605 21.9534C1.68303 19.0042 2.35043 16.2584 3.47852 13.7756ZM13.1514 3.84399C15.2393 3.87685 18.6385 4.70506 22.4385 6.05591C26.292 7.42582 30.4972 9.30961 34.0547 11.3635C37.6355 13.4309 40.4795 15.6254 41.7031 17.592C42.3078 18.5639 42.4706 19.4045 42.2334 20.1243C42.0043 20.8195 41.3593 21.5313 40.0488 22.1819C38.2175 21.4387 36.4704 20.8375 34.8311 20.387C35.5459 19.8096 36.0098 19.1858 36.1992 18.5081C36.4668 17.55 36.1518 16.6231 35.5186 15.7883C34.8898 14.9596 33.9122 14.1688 32.7246 13.426C31.531 12.6796 30.0963 11.9641 28.5264 11.2942C22.3168 8.6447 13.8118 6.64404 9.21582 6.36255C10.4169 5.39437 11.7324 4.55554 13.1514 3.84399ZM9.06934 6.85376L9.04199 7.35376C13.4752 7.60016 21.9597 9.57974 28.1338 12.2141C29.6732 12.871 31.0582 13.5632 32.1943 14.2737C33.3361 14.9877 34.1981 15.7027 34.7217 16.3928C35.2407 17.0771 35.3905 17.6844 35.2354 18.2395C35.0816 18.7891 34.5945 19.4083 33.5596 20.0618C31.782 19.6457 30.1403 19.4214 28.6709 19.4114C28.9607 17.4072 28.2691 15.78 26.8877 14.5422C25.3993 13.2087 23.1408 12.346 20.543 11.8577C15.6682 10.9413 9.38284 11.3008 4.05957 12.595C4.57648 11.6251 5.16853 10.6985 5.83984 9.82056L6.23047 9.32642C7.09006 8.27241 8.04636 7.31883 9.08984 6.46411L9.06934 6.85376Z" stroke="#E1FF51" stroke-opacity="0.15"/>
</svg>
