<svg width="111" height="100" viewBox="0 0 111 100" fill="none" xmlns="http://www.w3.org/2000/svg">
<path d="M86.2588 78.8462C86.6979 78.966 87.2 79.2939 87.7393 79.853C88.3079 80.4427 88.8811 81.2484 89.4258 82.2095C90.5148 84.131 91.4594 86.6167 92.0293 89.0845C92.6014 91.5616 92.7824 93.9634 92.3945 95.7349C92.2013 96.6169 91.8753 97.3071 91.4219 97.7788C91.1143 98.0988 90.7325 98.3298 90.2588 98.4536C90.2025 98.4622 90.1463 98.4726 90.0898 98.481L89.5322 98.5581C88.068 98.7499 86.5487 98.853 84.9814 98.8755C85.5627 98.455 86.0654 97.914 86.4834 97.2769C87.6447 95.5067 88.1727 93.0266 88.1426 90.4585C88.1123 87.8827 87.5201 85.1595 86.3799 82.8716C85.629 81.3649 84.6284 80.0295 83.3779 79.0562C84.4217 79.0905 85.3862 79.0243 86.2588 78.8462ZM76.8926 77.8813C78.3191 78.3043 79.6705 78.6188 80.9326 78.8169C82.8894 79.5356 84.4246 81.1886 85.4854 83.3169C86.5509 85.4549 87.1139 88.0275 87.1426 90.4702C87.1714 92.9206 86.6624 95.182 85.6475 96.729C84.8276 97.9786 83.6802 98.7647 82.1621 98.8306L81.1035 98.77C79.9379 98.6899 78.7513 98.5659 77.5459 98.4019C78.5795 97.9746 79.3619 97.2691 79.9238 96.3735C81.0691 94.5483 81.2942 91.9586 81.0137 89.314C80.7312 86.6512 79.9264 83.8418 78.9121 81.5015C78.4045 80.3304 77.8409 79.2674 77.2568 78.394C77.1376 78.2158 77.0148 78.0453 76.8926 77.8813ZM89.8135 76.9653C90.2582 77.0177 90.7862 77.2274 91.3818 77.6089C92.07 78.0497 92.8076 78.6929 93.5527 79.4897C95.0429 81.0834 96.5206 83.2454 97.6504 85.4858C98.7836 87.7331 99.544 90.0132 99.6445 91.8462C99.6947 92.7605 99.5785 93.5292 99.2949 94.1216C99.0179 94.7001 98.5704 95.1348 97.8945 95.3862L98.0693 95.854L98.168 96.1206C96.4213 96.9433 94.5252 97.5797 92.5 98.0337C92.9171 97.4485 93.199 96.7353 93.3711 95.9497C93.8048 93.9696 93.5905 91.4001 93.0039 88.8599C92.4151 86.3102 91.4382 83.7319 90.2959 81.7163C89.7249 80.7088 89.104 79.8276 88.459 79.1587C88.1963 78.8863 87.9219 78.6438 87.6396 78.4399C88.4954 78.0986 89.2294 77.6123 89.8135 76.9653ZM66.8311 73.7231C69.6792 75.1796 72.3938 76.3642 74.9092 77.2417C75.3756 77.5786 75.895 78.1576 76.4248 78.9497C76.9684 79.7625 77.5058 80.7699 77.9951 81.8989C78.9745 84.1587 79.7491 86.87 80.0195 89.4194C80.2919 91.9871 80.0427 94.3019 79.0762 95.8423C78.6005 96.6003 77.9493 97.1744 77.082 97.5122C76.2107 97.8515 75.0886 97.9648 73.6562 97.7417C70.3282 97.0658 66.8878 96.0917 63.3838 94.8296C65.8455 95.0599 67.7434 94.7861 69.1582 94.0913C71.5412 92.921 72.4189 90.6425 72.3906 88.0356C72.3625 85.4435 71.447 82.4376 70.1543 79.5942C69.2017 77.499 68.0325 75.4682 66.8311 73.7231ZM92.0049 71.686C92.4905 71.6799 93.2134 71.9353 94.126 72.4907C95.924 73.5851 98.177 75.6684 100.207 78.1431C102.236 80.6165 104.003 83.4337 104.864 85.9731C105.674 88.361 105.637 90.3424 104.502 91.6362L104.217 91.9282C102.881 93.2574 101.363 94.3916 99.6865 95.3364C99.8892 95.1014 100.06 94.8397 100.197 94.5532C100.577 93.7593 100.698 92.8075 100.643 91.7915C100.531 89.7634 99.7058 87.3416 98.543 85.0356C97.3766 82.7228 95.8472 80.4797 94.2832 78.8071C93.5014 77.9711 92.7005 77.2655 91.9209 76.7661C91.4374 76.4565 90.9458 76.2148 90.46 76.0776C91.0714 75.0203 91.3203 73.7482 91.2646 72.3286C91.3303 72.0654 91.4299 71.9187 91.5283 71.8354C91.6302 71.7492 91.7777 71.689 92.0049 71.686ZM13.6367 41.6001C16.2233 41.2474 20.23 42.2446 25.6426 45.1997C31.0346 48.1437 37.7521 52.992 45.7334 60.2251L46.0693 59.855L46.1133 59.8052L47.0107 60.5464C53.054 65.475 59.1549 69.5773 64.8066 72.6577C66.3699 74.6375 67.9973 77.2659 69.2441 80.0083C70.5107 82.7941 71.3647 85.6533 71.3906 88.0464C71.4164 90.4247 70.6327 92.2519 68.7168 93.1929C66.743 94.1622 63.4368 94.2652 58.2334 92.7856C50.2101 89.3056 41.9936 84.3742 34.1553 78.0894L33.3975 77.4761C31.2335 75.7113 29.166 73.8958 27.1982 72.0425C29.3373 73.7822 31.6505 75.5189 34.1074 77.2075C41.542 82.3172 48.9023 86.0612 54.8027 87.9761C57.7498 88.9325 60.3612 89.442 62.4482 89.4224C64.5181 89.4028 66.1972 88.8573 67.0908 87.5571C67.9845 86.2568 67.8916 84.4937 67.168 82.5542C66.4384 80.5987 65.0271 78.3436 63.0781 75.9351C59.1759 71.1128 53.043 65.5828 45.6084 60.4731C38.1738 55.3635 30.8135 51.6195 24.9131 49.7046C21.9663 48.7483 19.3556 48.2387 17.2686 48.2583C15.1985 48.2778 13.5187 48.8232 12.625 50.1235C12.1585 50.8024 11.9617 51.6072 11.9824 52.4976C11.7972 52.1388 11.6235 51.7874 11.4648 51.4419L11.542 51.3882C11.4478 51.2548 11.3571 51.1203 11.2656 50.9878C10.4516 49.1086 10.0379 47.4459 10.0068 46.062C9.97744 44.754 10.2864 43.7313 10.873 42.9995C11.4563 42.2721 12.3604 41.7742 13.6367 41.6001ZM90.7988 66.1899C91.2962 65.955 92.0735 65.885 93.1016 66.0229C95.1411 66.2967 97.8906 67.3499 100.601 68.9116C103.306 70.4707 105.922 72.5069 107.713 74.7046C109.379 76.7502 110.27 78.8581 109.98 80.8228L109.885 81.3071C109.248 84.2706 108.097 86.9746 106.405 89.3472C106.477 88.1889 106.243 86.9251 105.812 85.6528C104.898 82.9579 103.052 80.0344 100.98 77.5093C98.9099 74.9853 96.574 72.811 94.6455 71.6372C93.6951 71.0587 92.7701 70.6771 91.9922 70.687C91.6826 70.691 91.3819 70.7567 91.1162 70.9077C90.9325 69.7823 90.5896 68.5747 90.1016 67.3022C90.1122 67.0112 90.1792 66.7932 90.2812 66.6284C90.3917 66.4501 90.5595 66.303 90.7988 66.1899ZM17.2773 49.2583C19.2129 49.2401 21.7084 49.7159 24.6045 50.6558C30.3902 52.5334 37.6638 56.2264 45.042 61.2974C52.4201 66.3682 58.4744 71.8355 62.3008 76.564C64.2161 78.9309 65.5548 81.0902 66.2314 82.9038C66.9139 84.7331 66.8835 86.0943 66.2676 86.9907C65.6515 87.8872 64.3911 88.404 62.4385 88.4224C60.5029 88.4406 58.0074 87.9648 55.1113 87.0249C51.318 85.7938 46.8868 83.7792 42.2041 81.1108C43.8331 81.8162 45.3889 82.3691 46.8271 82.7524C48.7824 83.2735 50.5471 83.4926 51.9922 83.3521C53.4342 83.2118 54.6315 82.7027 55.3242 81.6948C56.0165 80.6871 56.0624 79.3879 55.6768 77.9917C55.2901 76.5921 54.4529 75.023 53.2656 73.3843C50.8883 70.1029 47.0387 66.4498 42.2871 63.1841C37.5353 59.9183 32.7446 57.6329 28.8291 56.5894C26.8738 56.0683 25.1092 55.8492 23.6641 55.9897C22.2223 56.13 21.0257 56.6384 20.333 57.646C19.6403 58.6539 19.5947 59.9536 19.9805 61.3501C20.3671 62.7496 21.2034 64.3188 22.3906 65.9575C22.8717 66.6215 23.4148 67.2996 24.0117 67.9878C21.4018 65.6141 19.1725 63.2876 17.415 61.1157C16.1234 59.5195 15.0944 58.0177 14.3535 56.6528L14.4775 56.5659C14.2594 56.2569 14.0513 55.9497 13.8496 55.647C13.7127 55.3488 13.5906 55.0589 13.4854 54.7769C12.8028 52.9474 12.8332 51.5864 13.4492 50.6899C14.0653 49.7935 15.3248 49.2767 17.2773 49.2583ZM23.7607 56.9849C25.0435 56.8601 26.6806 57.052 28.5723 57.5562C32.351 58.5633 37.0376 60.7887 41.7207 64.0073C46.4039 67.226 50.1616 70.8043 52.4561 73.9712C53.6044 75.5563 54.3697 77.0161 54.7129 78.2583C55.0567 79.5032 54.96 80.4588 54.5 81.1284C54.0397 81.7982 53.1815 82.2318 51.8955 82.3569C50.6128 82.4817 48.9755 82.2898 47.084 81.7856C43.3054 80.7784 38.6195 78.552 33.9365 75.3335C29.2533 72.1148 25.4956 68.5375 23.2012 65.3706C22.0526 63.7853 21.2875 62.3258 20.9443 61.0835C20.6003 59.8381 20.6969 58.8821 21.1572 58.2124C21.6176 57.5429 22.4751 57.1099 23.7607 56.9849ZM28.0869 20.4204C29.4528 20.371 31.0265 20.5356 32.7754 20.9097L33.5361 21.0835C35.2343 21.493 37.0771 22.0854 39.0342 22.8521L39.8799 23.1919C47.0221 26.122 55.5353 31.2518 64.001 38.0454L64.8203 38.7085C74.4519 46.5635 82.0075 54.9586 86.3096 62.0054C86.3885 62.33 86.4825 62.6641 86.5928 63.0073L86.8555 62.9224C87.1765 63.476 87.4777 64.0198 87.7559 64.5542L88.1211 65.2749C88.4121 65.8664 88.6746 66.4437 88.9082 67.0054L89.1318 67.562C89.7323 69.1075 90.0987 70.5179 90.2246 71.7671L90.2637 72.2925C90.3351 73.8004 90.0272 75.0245 89.3506 75.9536L89.21 76.1353C88.5638 76.9275 87.6309 77.4803 86.416 77.7866L86.1699 77.8452C84.9704 78.1071 83.5263 78.1382 81.8691 77.939L81.1455 77.8394C79.6089 77.6022 77.9168 77.1825 76.0977 76.5884L75.3105 76.3228C72.6539 75.4008 69.7533 74.1274 66.6953 72.5327L65.375 71.8296C60.1088 68.9671 54.434 65.1979 48.7744 60.6841L47.6426 59.771C44.9971 57.6135 42.5084 55.4125 40.1982 53.2104L40.4053 52.9839C39.0933 51.7949 37.8178 50.673 36.582 49.6128C33.3055 46.2006 30.5021 42.8358 28.2617 39.6675L28.4287 39.5073C28.1242 39.1919 27.8185 38.8875 27.5156 38.5903C27.2597 38.2117 27.0114 37.8365 26.7725 37.4644C24.0584 33.2368 22.4879 29.4956 22.2275 26.6011L22.207 26.3237C22.11 24.7561 22.4153 23.488 23.1094 22.5317L23.2529 22.3442C24.1613 21.2304 25.6441 20.5851 27.6738 20.4419L28.0869 20.4204ZM91.7764 61.6958C93.5016 60.9678 95.8708 60.6978 98.3535 60.9067C100.831 61.1153 103.373 61.7969 105.435 62.9243C107.494 64.0504 109.025 65.5928 109.6 67.5063C110.325 70.9097 110.609 74.1723 110.43 77.2261C109.98 76.1383 109.305 75.0779 108.487 74.0737C106.598 71.7551 103.876 69.6455 101.1 68.0454C98.3275 66.448 95.4505 65.3292 93.2344 65.0317C92.1348 64.8842 91.127 64.9285 90.3711 65.2856C90.0416 65.4414 89.7564 65.6589 89.5391 65.9458C89.3927 65.6176 89.237 65.2857 89.0732 64.9497C89.118 63.4987 90.0956 62.4052 91.7764 61.6958ZM88.502 55.9712C89.9545 54.6889 92.3667 54.2011 95.0928 54.4155C97.8001 54.6286 100.712 55.5278 103.061 56.8882C105.424 58.2575 107.129 60.0399 107.583 61.9692L108.034 61.8618C108.3 62.6464 108.545 63.4263 108.769 64.2007C107.973 63.3565 106.996 62.6386 105.915 62.0474C103.71 60.8413 101.028 60.1286 98.4375 59.9106C95.8523 59.6931 93.3083 59.9644 91.3877 60.7749C89.9758 61.3708 88.8504 62.287 88.3506 63.5454C88.0103 62.916 87.6426 62.2741 87.2471 61.6216C86.6104 58.86 87.255 57.0721 88.502 55.9712ZM88.127 49.7749C89.3721 49.6706 90.8159 49.789 92.3467 50.0952C95.4097 50.7079 98.7583 52.0585 101.457 53.7759C103.221 54.8986 104.657 56.1484 105.574 57.4106C104.96 56.9057 104.282 56.4402 103.562 56.0229C101.082 54.5868 98.0257 53.643 95.1709 53.4185C92.3347 53.1953 89.5905 53.6757 87.8398 55.2212C86.6542 56.268 85.9858 57.7443 85.999 59.6626C85.5889 59.0471 85.1584 58.4227 84.7051 57.7925L85.0254 57.6489C84.1687 55.7519 83.8653 54.2754 83.9434 53.1548C84.02 52.0544 84.4629 51.2831 85.1553 50.7505C85.8647 50.2048 86.8773 49.8797 88.127 49.7749ZM85.5469 42.979C88.2916 43.101 91.4851 43.8657 94.4268 45.0669C97.3731 46.2701 100.021 47.8925 101.704 49.6958L102.069 49.354L102.169 49.2603C103.486 51.4984 104.655 53.7321 105.67 55.9448C104.686 54.854 103.41 53.8342 101.994 52.9331C99.1931 51.1506 95.7287 49.7511 92.542 49.1138C90.9481 48.795 89.407 48.6635 88.043 48.7778C86.6834 48.8918 85.4614 49.2543 84.5459 49.9585C83.6133 50.6759 83.0406 51.7171 82.9453 53.0854C82.8875 53.9163 83.0063 54.8612 83.3145 55.9272C82.1656 54.4336 80.9059 52.9089 79.5439 51.3667L79.5693 51.354L80.0127 51.1245C78.2931 47.8082 78.4983 45.7895 79.5234 44.6216C80.5988 43.3968 82.7656 42.8554 85.5469 42.979ZM9.48633 50.1147C9.77138 50.5631 10.0718 51.0162 10.3867 51.4741C10.4691 51.6622 10.5548 51.8521 10.6445 52.0435C10.2462 51.4004 9.86031 50.7573 9.48633 50.1147ZM9.21289 35.7524C10.2873 35.5073 11.7255 35.5795 13.5557 36.0796C15.3814 36.5785 17.5672 37.4952 20.1191 38.9048C24.3789 41.2578 29.6277 44.9676 35.8887 50.3354C36.3996 50.8671 36.9232 51.3982 37.4561 51.9312C33.2132 48.6329 29.4308 46.1288 26.1211 44.3218C20.6589 41.3396 16.4153 40.2117 13.502 40.6089C12.0285 40.8098 10.8698 41.4059 10.0938 42.3735C9.32117 43.3371 8.97373 44.6114 9.00684 46.0845C9.01784 46.5741 9.0713 47.0895 9.16602 47.6284C7.67638 44.9439 6.82095 42.5561 6.58887 40.6294C6.42137 39.2383 6.58321 38.1311 7.01758 37.3276C7.44264 36.5414 8.15572 35.9938 9.21289 35.7524ZM40.6514 2.51416C41.3546 2.68487 42.0626 2.86768 42.7744 3.06396C44.5635 3.55731 46.3771 4.13104 48.208 4.78369L48.0693 4.854L47.6221 5.07764C49.6502 9.13381 55.4369 17.8059 64.1016 25.9683C72.767 34.1313 84.357 41.8285 97.9961 43.8491L98.0693 43.354L98.1182 43.021C99.3118 44.7005 100.425 46.3861 101.455 48.0708C99.6869 46.5214 97.3272 45.1712 94.8047 44.1411C91.778 42.9052 88.4717 42.108 85.5918 41.98C82.7484 41.8536 80.1649 42.3749 78.7715 43.9624C77.5331 45.3734 77.3726 47.4454 78.4756 50.1743C75.0316 46.398 70.9953 42.539 66.4971 38.7944L65.4521 37.9331C59.9125 33.4153 54.3227 29.59 49.0732 26.6099C49.4139 26.6256 49.7367 26.602 50.041 26.5356C51.0948 26.3058 51.837 25.6045 52.2881 24.6362C52.732 23.6832 52.903 22.4603 52.8525 21.1079C52.8018 19.7495 52.5264 18.2262 52.0479 16.647C50.4468 11.3635 46.4913 5.24268 40.6514 2.51416ZM10.1309 31.4126C14.2162 30.9019 20.1829 32.8221 26.7471 39.2358C28.0904 41.2156 29.6557 43.2744 31.4219 45.3755C27.3121 42.1602 23.7089 39.7457 20.6025 38.0298C18.0045 36.5947 15.7438 35.6406 13.8193 35.1147C11.8994 34.5901 10.2827 34.4828 8.99023 34.7778C7.6807 35.0767 6.71389 35.7883 6.13867 36.8521C5.57279 37.8988 5.41339 39.2344 5.5957 40.7485C5.75937 42.1078 6.20374 43.6463 6.91602 45.3179C5.84739 43.1335 4.92662 40.9658 4.15918 38.8306L4.55469 38.7329C4.0882 36.8669 4.44173 35.1807 5.40625 33.897C6.37396 32.6091 7.99164 31.6801 10.1309 31.4126ZM48.6875 4.9585C58.123 8.3874 68.0022 13.9044 77.3574 21.3491L78.4521 22.231C86.2873 28.6208 92.8667 35.6708 97.9854 42.8354C84.6923 40.8203 73.338 33.2959 64.7871 25.2407C56.4335 17.3714 50.8021 9.03566 48.6875 4.9585ZM8.47266 27.6128C11.9568 27.3064 16.9569 29.0649 22.6641 34.5112C17.8197 31.1098 13.4107 29.9949 10.0068 30.4204C7.6463 30.7155 5.76366 31.7563 4.60645 33.2964C3.90882 34.225 3.48894 35.3189 3.37988 36.5073C3.20733 35.9513 3.04633 35.3977 2.89551 34.8472L3.27344 34.7524C2.80435 32.8757 3.12148 31.1853 4.02051 29.9272C4.91914 28.67 6.43706 27.7918 8.47266 27.6128ZM8.40332 23.9165C12.3327 23.7506 17.7122 26.1274 22.6426 33.1235C17.0976 28.0708 12.1038 26.2896 8.38477 26.6167C6.10033 26.8176 4.29762 27.8187 3.20605 29.3462C2.92966 29.733 2.70177 30.1505 2.52344 30.5923C2.11715 28.8006 2.55329 27.2092 3.56543 26.0317C4.60992 24.8167 6.30025 24.0054 8.40332 23.9165ZM2.46191 30.7554C2.335 31.0975 2.23719 31.4532 2.16992 31.8208C2.10524 31.5041 2.04329 31.1888 1.98633 30.8745L2.06934 30.854L2.46191 30.7554ZM6.51367 19.4155C8.51803 18.8022 10.727 18.9939 12.8379 19.6763C14.9473 20.3582 16.9252 21.5195 18.4424 22.7974C19.9627 24.0779 20.9494 25.4158 21.2129 26.4429C21.3051 27.8131 21.6715 29.3357 22.2842 30.9761C17.538 24.9841 12.4017 22.7467 8.36035 22.9175C6.02612 23.0162 4.05992 23.9236 2.80762 25.3804C2.20347 26.0832 1.77498 26.9053 1.55078 27.8081C1.4175 26.5048 1.35628 25.228 1.36816 23.9819C2.73172 21.4056 4.55008 20.0164 6.51367 19.4155ZM15.0078 3.01025C21.0468 0.585105 28.6712 0.198915 37.0889 1.75342L37.0693 1.854L36.9717 2.34424C44.215 3.7931 49.2424 10.8372 51.0908 16.937C51.5496 18.4511 51.8056 19.8885 51.8525 21.145C51.8997 22.4077 51.7347 23.4555 51.3818 24.2134C51.0361 24.9558 50.5202 25.4071 49.8281 25.5581C49.1107 25.7146 48.1153 25.5679 46.793 24.9067L46.6143 25.2632C44.7583 24.2834 42.9551 23.4174 41.2227 22.6724C42.2401 22.0393 42.9005 21.2968 43.1836 20.438C43.549 19.3291 43.2414 18.1723 42.5518 17.064C41.1867 14.8701 38.148 12.5721 34.5547 10.4976C30.9379 8.40941 26.6764 6.50125 22.7734 5.11377C19.8785 4.08464 17.1466 3.32985 15.0078 3.01025ZM3.47852 13.7759C8.85225 12.3408 15.3972 11.9086 20.3584 12.8413C22.879 13.3152 24.9295 14.1297 26.2207 15.2866C27.3978 16.3413 27.9638 17.6938 27.6572 19.4409C25.8406 19.5616 24.3009 20.0601 23.1699 21.0112C22.0823 16.8746 17.8415 14.6651 13.5977 14.0122C11.2958 13.6581 8.9261 13.7457 6.92285 14.2495C4.93613 14.7492 3.22411 15.6815 2.36133 17.0933L3.21484 17.6147C3.87978 16.5268 5.29117 15.691 7.16699 15.2192C9.02663 14.7516 11.2601 14.6644 13.4453 15.0005C17.788 15.6685 21.6805 17.9444 22.3369 21.895C21.8006 22.6154 21.4627 23.4567 21.3018 24.3931C20.7435 23.5914 19.978 22.7833 19.0869 22.0327C17.479 20.6784 15.3883 19.4491 13.1455 18.7241C10.9041 17.9996 8.47695 17.769 6.2207 18.4595C4.43751 19.0052 2.79647 20.1179 1.45605 21.9536C1.68303 19.0044 2.35043 16.2587 3.47852 13.7759ZM13.1514 3.84424C15.2393 3.87709 18.6385 4.7053 22.4385 6.05615C26.292 7.42607 30.4972 9.30986 34.0547 11.3638C37.6355 13.4312 40.4795 15.6257 41.7031 17.5923C42.3078 18.5642 42.4706 19.4047 42.2334 20.1245C42.0043 20.8197 41.3593 21.5316 40.0488 22.1821C38.2175 21.439 36.4704 20.8377 34.8311 20.3872C35.5459 19.8098 36.0098 19.186 36.1992 18.5083C36.4668 17.5502 36.1518 16.6234 35.5186 15.7886C34.8898 14.9598 33.9122 14.169 32.7246 13.4263C31.531 12.6798 30.0963 11.9643 28.5264 11.2944C22.3168 8.64495 13.8118 6.64428 9.21582 6.36279C10.4169 5.39461 11.7324 4.55578 13.1514 3.84424ZM9.06934 6.854L9.04199 7.354C13.4752 7.6004 21.9597 9.57998 28.1338 12.2144C29.6732 12.8712 31.0582 13.5634 32.1943 14.2739C33.3361 14.9879 34.1981 15.7029 34.7217 16.3931C35.2407 17.0774 35.3905 17.6846 35.2354 18.2397C35.0816 18.7894 34.5945 19.4085 33.5596 20.062C31.782 19.646 30.1403 19.4216 28.6709 19.4116C28.9607 17.4075 28.2691 15.7803 26.8877 14.5425C25.3993 13.2089 23.1408 12.3463 20.543 11.8579C15.6682 10.9415 9.38284 11.301 4.05957 12.5952C4.57648 11.6253 5.16853 10.6987 5.83984 9.8208L6.23047 9.32666C7.09006 8.27266 8.04636 7.31907 9.08984 6.46436L9.06934 6.854Z" fill="#E1FF51" stroke="#F7B638"/>
</svg>
