<svg width="161" height="48" viewBox="0 0 161 48" fill="none" xmlns="http://www.w3.org/2000/svg">
<rect x="0.800781" y="0.768555" width="45" height="46" rx="22.5" stroke="#7A731D" stroke-opacity="0.5"/>
<path d="M17.7816 15.2686H28.0618C28.3319 15.2686 28.5508 15.4875 28.5508 15.7575C28.5508 16.6836 28.0276 17.5302 27.1993 17.9443L26.968 18.06C26.6948 18.1966 26.3901 18.2578 26.0854 18.2375L19.0508 17.7686L32.0508 21.2686L32.2797 21.4212C33.0302 21.9215 33.3529 22.8621 33.0677 23.7178L33.0508 23.7686L23.5508 21.7686L33.3572 24.443C34.0619 24.6352 34.5508 25.2753 34.5508 26.0057V26.037C34.5508 26.1904 34.5261 26.3427 34.4776 26.4882C34.2381 27.2065 33.4792 27.6127 32.7487 27.4134L23.0508 24.7686L32.1279 27.4917C32.6756 27.656 33.0508 28.1602 33.0508 28.7321C33.0508 29.0756 32.9143 29.405 32.6715 29.6479L32.6283 29.691C32.27 30.0493 31.75 30.1934 31.2584 30.0705L22.0508 27.7686L27.6779 29.7783C28.4408 30.0507 28.846 30.883 28.5898 31.6515C28.5648 31.7265 28.5111 31.7884 28.4404 31.8237L28.3713 31.8583C27.8426 32.1226 27.2355 32.1845 26.6643 32.0322L22.4626 30.9117C20.8575 30.4837 19.2907 29.9231 17.7784 29.2357L16.8619 28.8191C15.3336 28.1244 13.9427 27.1605 12.7557 25.9734L12.6366 25.8543C12.2615 25.4793 12.0508 24.9706 12.0508 24.4401V20.2686L12.893 18.584C13.3264 17.7174 13.9426 16.9551 14.6993 16.3498C15.5741 15.6499 16.6612 15.2686 17.7816 15.2686Z" stroke="#7A731D" stroke-opacity="0.5"/>
<line x1="46.3008" y1="23.2686" x2="114.301" y2="23.2686" stroke="#7A731D" stroke-opacity="0.5" stroke-dasharray="2 2"/>
<rect x="114.801" y="0.768555" width="45" height="46" rx="22.5" stroke="#7A731D" stroke-opacity="0.5"/>
<path d="M142.82 15.2686H132.54C132.27 15.2686 132.051 15.4875 132.051 15.7575C132.051 16.6836 132.574 17.5302 133.402 17.9443L133.634 18.06C133.907 18.1966 134.211 18.2578 134.516 18.2375L141.551 17.7686L128.551 21.2686L128.322 21.4212C127.571 21.9215 127.249 22.8621 127.534 23.7178L127.551 23.7686L137.051 21.7686L127.244 24.443C126.54 24.6352 126.051 25.2753 126.051 26.0057V26.037C126.051 26.1904 126.076 26.3427 126.124 26.4882C126.363 27.2065 127.122 27.6127 127.853 27.4134L137.551 24.7686L128.474 27.4917C127.926 27.656 127.551 28.1602 127.551 28.7321C127.551 29.0756 127.687 29.405 127.93 29.6479L127.973 29.691C128.332 30.0493 128.852 30.1934 129.343 30.0705L138.551 27.7686L132.924 29.7783C132.161 30.0507 131.756 30.883 132.012 31.6515C132.037 31.7265 132.09 31.7884 132.161 31.8237L132.23 31.8583C132.759 32.1226 133.366 32.1845 133.937 32.0322L138.139 30.9117C139.744 30.4837 141.311 29.9231 142.823 29.2357L143.74 28.8191C145.268 28.1244 146.659 27.1605 147.846 25.9734L147.965 25.8543C148.34 25.4793 148.551 24.9706 148.551 24.4401V20.2686L147.709 18.584C147.275 17.7174 146.659 16.9551 145.902 16.3498C145.027 15.6499 143.94 15.2686 142.82 15.2686Z" stroke="#7A731D" stroke-opacity="0.5"/>
</svg>
