<svg width="163" height="58" viewBox="0 0 163 58" fill="none" xmlns="http://www.w3.org/2000/svg">
<rect x="0.814346" y="11.022" width="45" height="46" rx="22.5" transform="rotate(-3.69 0.814346 11.022)" stroke="#7A731D" stroke-opacity="0.5"/>
<path d="M18.6935 24.3992L28.9524 23.7376C29.2219 23.7202 29.4545 23.9246 29.4719 24.1941C29.5315 25.1183 29.0638 25.9967 28.2639 26.4633L28.0405 26.5936C27.7767 26.7475 27.4766 26.8283 27.1712 26.8276L20.121 26.8124L33.3193 29.4685L33.5576 29.6061C34.3387 30.057 34.7213 30.9749 34.4917 31.8471L34.4781 31.8989L24.8691 30.5145L34.8273 32.5523C35.5429 32.6987 36.072 33.306 36.119 34.0349L36.121 34.0662C36.1309 34.2192 36.116 34.3728 36.077 34.5211C35.8843 35.2533 35.1531 35.7075 34.4113 35.5557L24.5632 33.5404L33.7967 35.6737C34.3539 35.8025 34.7608 36.2815 34.7976 36.8522C34.8197 37.195 34.7047 37.5325 34.478 37.7905L34.4377 37.8363C34.1032 38.2169 33.5935 38.3941 33.0951 38.3031L23.7584 36.5986L29.5032 38.2419C30.282 38.4647 30.7399 39.2693 30.5337 40.0526C30.5136 40.129 30.464 40.1943 30.3958 40.2341L30.329 40.273C29.8184 40.5709 29.2165 40.6717 28.6368 40.5564L24.3716 39.7087C22.7423 39.3849 21.1427 38.9263 19.5893 38.3376L18.6479 37.9809C17.078 37.386 15.628 36.5136 14.367 35.4054L14.2405 35.2942C13.842 34.9441 13.599 34.45 13.5649 33.9206L13.2964 29.7577L14.0285 28.0225C14.4052 27.1297 14.9711 26.3293 15.6872 25.6766C16.5152 24.9218 17.5755 24.4713 18.6935 24.3992Z" stroke="#7A731D" stroke-opacity="0.5"/>
<line x1="47.668" y1="30.5469" x2="115.527" y2="26.1706" stroke="#7A731D" stroke-opacity="0.5" stroke-dasharray="2 2"/>
<rect x="114.578" y="3.68505" width="45" height="46" rx="22.5" transform="rotate(-3.69 114.578 3.68505)" stroke="#7A731D" stroke-opacity="0.5"/>
<path d="M143.472 16.3517L133.214 17.0133C132.944 17.0307 132.74 17.2633 132.757 17.5328C132.817 18.4569 133.393 19.2681 134.247 19.628L134.485 19.7286C134.766 19.8473 135.074 19.8889 135.377 19.849L142.367 18.9282L129.619 23.2576L129.4 23.4247C128.684 23.9722 128.422 24.9317 128.762 25.7672L128.782 25.8168L138.134 23.2096L128.52 26.5096C127.829 26.7468 127.382 27.417 127.429 28.1459L127.431 28.1771C127.441 28.3302 127.475 28.4806 127.533 28.6226C127.818 29.3241 128.602 29.6805 129.318 29.4347L138.826 26.1712L129.943 29.4728C129.407 29.6721 129.065 30.1994 129.101 30.7701C129.124 31.1128 129.281 31.4328 129.539 31.6595L129.585 31.6998C129.965 32.0343 130.494 32.1446 130.976 31.9903L140.017 29.1006L134.53 31.4683C133.787 31.7893 133.436 32.6459 133.741 33.3963C133.771 33.4695 133.828 33.5279 133.901 33.5586L133.972 33.5886C134.517 33.8184 135.127 33.841 135.687 33.6523L139.808 32.2637C141.382 31.7333 142.91 31.073 144.375 30.2897L145.262 29.815C146.743 29.0234 148.069 27.972 149.177 26.711L149.288 26.5845C149.638 26.186 149.816 25.6648 149.782 25.1355L149.513 20.9725L148.564 19.3457C148.076 18.5088 147.412 17.7877 146.618 17.2323C145.7 16.5902 144.591 16.2796 143.472 16.3517Z" stroke="#7A731D" stroke-opacity="0.5"/>
</svg>
