<svg width="248" height="171" viewBox="0 0 248 171" fill="none" xmlns="http://www.w3.org/2000/svg">
<path d="M1 1H247V170H1V1Z" fill="#D9D9D9"/>
<path d="M247 1H1V170M247 1V170H1M247 1L1 170" stroke="white"/>
<path d="M53.43 84H48.945V83.77C50.532 83.54 50.67 83.356 50.67 82.275V77.537L45.403 67.923C44.943 67.072 44.621 66.865 43.54 66.75V66.52H48.025V66.75C47.197 66.888 46.507 66.888 46.507 67.371C46.507 67.509 46.553 67.693 46.691 67.923L51.498 76.571L56.075 67.831C56.144 67.693 56.19 67.555 56.19 67.463C56.19 66.888 55.178 66.842 54.166 66.75V66.52H58.651V66.75C57.478 66.865 57.133 67.118 56.719 67.9L51.705 77.399V82.275C51.705 83.356 51.889 83.54 53.43 83.77V84ZM61.9308 84.253C58.4578 84.253 56.7098 80.918 56.7098 78.25C56.7098 75.628 58.4118 72.155 62.0228 72.155C65.6568 72.155 67.0598 75.605 67.0598 78.089C67.0598 80.688 65.5188 84.253 61.9308 84.253ZM62.2298 83.54C64.4608 83.54 66.1168 81.309 66.1168 78.411C66.1168 75.605 64.5758 72.868 61.7928 72.868C59.2858 72.868 57.5378 75.099 57.5378 77.859C57.5378 80.734 59.4008 83.54 62.2298 83.54ZM72.4524 84.253C70.9344 84.253 69.7844 83.448 69.7844 80.435V74.915C69.7844 73.742 69.6464 73.328 69.0024 73.328C68.7954 73.328 68.5654 73.374 68.2894 73.42V73.19L70.4744 72.5H70.7044V80.136C70.7044 82.62 71.5554 83.54 72.8894 83.54C74.5684 83.54 75.6494 82.091 76.2014 80.665V74.915C76.2014 73.742 76.0634 73.328 75.4194 73.328C75.2124 73.328 74.9824 73.374 74.7064 73.42V73.19L76.8914 72.5H77.1214V81.585C77.1214 82.758 77.2594 83.172 77.9034 83.172C78.1104 83.172 78.3404 83.126 78.6164 83.08V83.31L76.4314 84H76.2014V81.585C75.7184 82.643 74.5914 84.253 72.4524 84.253ZM83.5235 84H79.6135V83.77C80.7405 83.54 81.1085 83.333 81.1085 82.275V74.915C81.1085 73.719 80.9475 73.328 80.3035 73.328C80.0965 73.328 79.8895 73.374 79.6135 73.42V73.19L81.7985 72.5H82.0285V75.812H82.0515C82.4425 74.248 83.3855 72.155 85.1105 72.155C86.2375 72.155 86.9045 73.052 87.2495 73.604L85.6855 77.054H85.5705C85.8925 76.18 86.0995 75.329 86.0995 74.593C86.0995 73.535 85.6625 72.776 84.8805 72.776C83.2935 72.776 82.2355 75.996 82.0285 78.181V82.275C82.0285 83.379 82.4425 83.54 83.5235 83.77V84ZM96.0995 88.6H92.1895V88.37C93.2935 88.14 93.6845 87.933 93.6845 86.875V74.915C93.6845 73.742 93.5465 73.305 92.9255 73.305C92.7185 73.305 92.4885 73.351 92.1895 73.42V73.121L94.3745 72.431C95.1795 72.247 95.8925 72.155 96.5825 72.155C100.998 72.155 102.194 75.904 102.194 78.526C102.194 81.493 100.676 84.253 97.7785 84.253C96.0995 84.253 95.2945 83.333 94.6045 82.436V86.875C94.6045 87.979 95.0185 88.14 96.0995 88.37V88.6ZM97.6175 83.54C99.6185 83.54 101.251 81.424 101.251 78.365C101.251 75.352 99.6875 72.684 96.1915 72.684C95.6395 72.684 95.1795 72.753 94.6045 72.891V81.953C95.2715 82.735 96.3755 83.54 97.6175 83.54ZM107.512 84H103.602V83.77C104.729 83.54 105.097 83.333 105.097 82.275V74.915C105.097 73.719 104.936 73.328 104.292 73.328C104.085 73.328 103.878 73.374 103.602 73.42V73.19L105.787 72.5H106.017V75.812H106.04C106.431 74.248 107.374 72.155 109.099 72.155C110.226 72.155 110.893 73.052 111.238 73.604L109.674 77.054H109.559C109.881 76.18 110.088 75.329 110.088 74.593C110.088 73.535 109.651 72.776 108.869 72.776C107.282 72.776 106.224 75.996 106.017 78.181V82.275C106.017 83.379 106.431 83.54 107.512 83.77V84ZM117.095 84.253C113.622 84.253 111.874 80.918 111.874 78.25C111.874 75.628 113.576 72.155 117.187 72.155C120.821 72.155 122.224 75.605 122.224 78.089C122.224 80.688 120.683 84.253 117.095 84.253ZM117.394 83.54C119.625 83.54 121.281 81.309 121.281 78.411C121.281 75.605 119.74 72.868 116.957 72.868C114.45 72.868 112.702 75.099 112.702 77.859C112.702 80.734 114.565 83.54 117.394 83.54ZM125.317 69.257C124.765 69.257 124.374 68.843 124.374 68.291C124.374 67.739 124.765 67.325 125.317 67.325C125.869 67.325 126.26 67.739 126.26 68.291C126.26 68.843 125.869 69.257 125.317 69.257ZM123.592 88.738C122.51 88.738 121.545 87.956 121.199 87.105H121.314C121.774 87.841 122.648 88.278 123.339 88.278C124.351 88.278 124.995 87.335 124.995 85.771V74.915C124.995 73.374 124.765 73.19 123.5 73.42V73.19L125.685 72.5H125.915V85.84C125.915 87.818 124.765 88.738 123.592 88.738ZM133.466 84.253C130.062 84.253 128.383 81.125 128.383 78.273C128.383 74.984 130.614 72.155 133.489 72.155C135.927 72.155 137.652 74.156 137.652 77.169V77.445H129.165V77.652C129.165 80.918 131.166 83.54 133.857 83.54C135.674 83.54 137.33 82.344 138.319 79.952H138.434C137.698 82.344 136.111 84.253 133.466 84.253ZM129.28 76.824H136.663C136.663 74.455 135.467 72.868 133.397 72.868C131.212 72.868 129.602 74.616 129.28 76.824ZM144.605 84.253C141.385 84.253 139.591 81.447 139.591 78.296C139.591 75.168 141.477 72.155 144.812 72.155C146.928 72.155 148.262 73.351 148.699 73.949L147.112 77.882H146.997C147.296 77.054 147.434 76.295 147.434 75.651C147.434 73.926 146.468 72.868 144.628 72.868C142.466 72.868 140.419 74.317 140.419 77.652C140.419 81.079 142.558 83.54 144.881 83.54C147.066 83.54 148.492 82.39 149.527 79.952H149.642C148.929 82.252 147.342 84.253 144.605 84.253ZM153.861 84.253C152.504 84.253 151.791 83.333 151.791 80.895V73.075H150.043V72.845C151.86 72.569 152.205 71.925 152.366 68.59H152.711V72.5H155.747V73.075H152.711V80.78C152.711 82.873 153.194 83.655 154.275 83.655C154.827 83.655 155.885 83.448 156.483 81.792H156.598C156.115 83.494 155.103 84.253 153.861 84.253ZM165.998 84H162.088V83.77C163.215 83.54 163.583 83.356 163.583 82.367V68.015C163.583 66.474 163.353 66.29 162.088 66.52V66.29L164.273 65.6H164.503V75.237C164.825 74.317 165.975 72.155 168.574 72.155C170.253 72.155 171.38 73.098 171.38 75.605V82.367C171.38 83.356 171.794 83.54 172.875 83.77V84H168.965V83.77C170.023 83.563 170.46 83.356 170.46 82.367V76.295C170.46 73.765 169.609 72.868 167.953 72.868C166.366 72.868 164.848 74.685 164.503 76.341V82.367C164.503 83.356 164.917 83.54 165.998 83.77V84ZM179.242 84.253C175.838 84.253 174.159 81.125 174.159 78.273C174.159 74.984 176.39 72.155 179.265 72.155C181.703 72.155 183.428 74.156 183.428 77.169V77.445H174.941V77.652C174.941 80.918 176.942 83.54 179.633 83.54C181.45 83.54 183.106 82.344 184.095 79.952H184.21C183.474 82.344 181.887 84.253 179.242 84.253ZM175.056 76.824H182.439C182.439 74.455 181.243 72.868 179.173 72.868C176.988 72.868 175.378 74.616 175.056 76.824ZM188.978 84H185.068V83.77C186.195 83.54 186.563 83.333 186.563 82.275V74.915C186.563 73.719 186.402 73.328 185.758 73.328C185.551 73.328 185.344 73.374 185.068 73.42V73.19L187.253 72.5H187.483V75.812H187.506C187.897 74.248 188.84 72.155 190.565 72.155C191.692 72.155 192.359 73.052 192.704 73.604L191.14 77.054H191.025C191.347 76.18 191.554 75.329 191.554 74.593C191.554 73.535 191.117 72.776 190.335 72.776C188.748 72.776 187.69 75.996 187.483 78.181V82.275C187.483 83.379 187.897 83.54 188.978 83.77V84ZM198.446 84.253C195.042 84.253 193.363 81.125 193.363 78.273C193.363 74.984 195.594 72.155 198.469 72.155C200.907 72.155 202.632 74.156 202.632 77.169V77.445H194.145V77.652C194.145 80.918 196.146 83.54 198.837 83.54C200.654 83.54 202.31 82.344 203.299 79.952H203.414C202.678 82.344 201.091 84.253 198.446 84.253ZM194.26 76.824H201.643C201.643 74.455 200.447 72.868 198.377 72.868C196.192 72.868 194.582 74.616 194.26 76.824Z" fill="white"/>
<path d="M91.34 116.575V99.348L93.456 97.232H96.032V98.75H94.192L93.042 99.877V116.046L94.192 117.173H96.032V118.691H93.456L91.34 116.575Z" fill="white"/>
<path d="M156.66 116.575V99.348L154.544 97.232H151.968V98.75H153.808L154.958 99.877V116.046L153.808 117.173H151.968V118.691H154.544L156.66 116.575Z" fill="white"/>
<path d="M99.673 120.04H99.443C100.133 119.143 100.501 118.407 100.501 117.671C100.501 116.958 100.156 115.831 99.673 115.256C99.673 114.589 100.156 114.359 100.593 114.359C101.168 114.359 101.605 114.773 101.605 115.578C101.605 116.544 100.984 118.637 99.673 120.04ZM103.514 120.04H103.284C103.974 119.143 104.342 118.407 104.342 117.671C104.342 116.958 103.997 115.831 103.514 115.256C103.514 114.589 103.997 114.359 104.434 114.359C105.009 114.359 105.446 114.773 105.446 115.578C105.446 116.544 104.825 118.637 103.514 120.04Z" fill="white"/>
<path d="M143.673 120.04H143.443C144.133 119.143 144.501 118.407 144.501 117.671C144.501 116.958 144.156 115.831 143.673 115.256C143.673 114.589 144.156 114.359 144.593 114.359C145.168 114.359 145.605 114.773 145.605 115.578C145.605 116.544 144.984 118.637 143.673 120.04ZM147.514 120.04H147.284C147.974 119.143 148.342 118.407 148.342 117.671C148.342 116.958 147.997 115.831 147.514 115.256C147.514 114.589 147.997 114.359 148.434 114.359C149.009 114.359 149.446 114.773 149.446 115.578C149.446 116.544 148.825 118.637 147.514 120.04Z" fill="white"/>
<rect x="108" y="108.5" width="3" height="3" fill="white" stroke="white"/>
<rect x="137" y="108.5" width="3" height="3" fill="white" stroke="white"/>
<path d="M119 111V111C119 113.761 121.239 116 124 116V116C126.761 116 129 113.761 129 111V111" stroke="white"/>
</svg>
