<svg width="73" height="44" viewBox="0 0 73 44" fill="none" xmlns="http://www.w3.org/2000/svg">
<path d="M2.56 33.5432V9.57516L5.504 6.63116H9.088V8.74316H6.528L4.928 10.3112V32.8072L6.528 34.3752H9.088V36.4872H5.504L2.56 33.5432Z" fill="#E1FF51"/>
<rect x="20.5" y="19.665" width="3" height="3" fill="#E1FF51" stroke="#E1FF51"/>
<rect x="49.5" y="19.665" width="3" height="3" fill="#E1FF51" stroke="#E1FF51"/>
<path d="M31.5 22.165V22.165C31.5 24.9265 33.7386 27.165 36.5 27.165V27.165C39.2614 27.165 41.5 24.9265 41.5 22.165V22.165" stroke="#E1FF51" stroke-width="1.5"/>
<path d="M70.44 33.5432V9.57516L67.496 6.63116H63.912V8.74316H66.472L68.072 10.3112V32.8072L66.472 34.3752H63.912V36.4872H67.496L70.44 33.5432Z" fill="#E1FF51"/>
<path d="M11.326 39.48H11.066C11.846 38.466 12.262 37.634 12.262 36.802C12.262 35.996 11.872 34.722 11.326 34.072C11.326 33.318 11.872 33.058 12.366 33.058C13.016 33.058 13.51 33.526 13.51 34.436C13.51 35.528 12.808 37.894 11.326 39.48ZM15.6678 39.48H15.4078C16.1878 38.466 16.6038 37.634 16.6038 36.802C16.6038 35.996 16.2138 34.722 15.6678 34.072C15.6678 33.318 16.2138 33.058 16.7078 33.058C17.3578 33.058 17.8518 33.526 17.8518 34.436C17.8518 35.528 17.1498 37.894 15.6678 39.48Z" fill="#E1FF51"/>
<path d="M55.326 39.48H55.066C55.846 38.466 56.262 37.634 56.262 36.802C56.262 35.996 55.872 34.722 55.326 34.072C55.326 33.318 55.872 33.058 56.366 33.058C57.016 33.058 57.51 33.526 57.51 34.436C57.51 35.528 56.808 37.894 55.326 39.48ZM59.6678 39.48H59.4078C60.1878 38.466 60.6038 37.634 60.6038 36.802C60.6038 35.996 60.2138 34.722 59.6678 34.072C59.6678 33.318 60.2138 33.058 60.7078 33.058C61.3578 33.058 61.8518 33.526 61.8518 34.436C61.8518 35.528 61.1498 37.894 59.6678 39.48Z" fill="#E1FF51"/>
</svg>
